# xmcd
#
# Track frame offsets:
#	150
#	11795
#	26040
#	44955
#	58215
#	74465
#	89275
#	102545
#	116535
#	131365
#
# Disc length: 1956 seconds
#
# Revision: 0
# Processed by: cddbd v1.4PL0 Copyright (c) Steve Scherf et al.
# Submitted via: EasyCDDAExtractor 4.6.9.1
#
DISCID=9407a20a
DTITLE=Ellis James - Genuine
DYEAR=1900
DGENRE=Country
TTITLE0=Only a woman like you
TTITLE1=Love it back together
TTITLE2=Lookin' for a way
TTITLE3=She wakes me with a kiss every morning
TTITLE4=We can't go on living like this
TTITLE5=Plastic saddle
TTITLE6=I wan't you,I need you,I love you
TTITLE7=Hooked on a feeling
TTITLE8=Seperate ways
TTITLE9=If that isn't love
EXTD=
EXTT0=
EXTT1=
EXTT2=
EXTT3=
EXTT4=
EXTT5=
EXTT6=
EXTT7=
EXTT8=
EXTT9=
PLAYORDER=
